<svg xmlns="http://www.w3.org/2000/svg" viewBox="0 0 240 336" width="100%" max-width="300px">
  <defs>
    <g id="diamond"><path d="M 0 -25 L 18 0 L 0 25 L -18 0 Z" fill="#d40000" /></g>
    <g id="small-diamond"><use href="#diamond" transform="scale(0.42)" y="-2" /></g>
    <g id="index"><text x="26" y="42" font-family="Arial, sans-serif" font-size="32" font-weight="bold" fill="#d40000" text-anchor="middle">Q</text><use href="#small-diamond" x="26" y="64" /></g>
    <g id="queen-half">
      <!-- Одежда (золотая с красным) -->
      <rect x="44" y="44" width="152" height="124" fill="#ffd700" />
      <path d="M196 44 L 44 168 L 196 168 Z" fill="#d40000" />
      <!-- Лицо -->
      <path d="M105 70 L 135 70 L 130 110 L 110 110 Z" fill="#ffe0bd" stroke="#000" stroke-width="1.5" />
      <path d="M100 70 L 105 110 L 110 110 L 105 70 M 140 70 L 135 110 L 130 110 L 135 70" fill="#333" />
      <path d="M100 70 L 105 44 L 120 60 L 135 44 L 140 70 Z" fill="#0055aa" stroke="#000" stroke-width="1.5" />
      <!-- Цветок -->
      <path d="M70 168 L 70 100" stroke="#000" stroke-width="4" />
      <circle cx="70" cy="100" r="12" fill="#d40000" />
      <circle cx="70" cy="100" r="4" fill="#ffd700" />
      <use href="#small-diamond" x="156" y="125" />
    </g>
  </defs>
  <rect x="1" y="1" width="238" height="334" rx="14" ry="14" fill="#ffffff" stroke="#000000" stroke-width="1.5" />
  <use href="#index" />
  <use href="#index" transform="rotate(180 120 168)" />
  <rect x="44" y="44" width="152" height="248" fill="none" stroke="#000000" stroke-width="2" />
  <use href="#queen-half" />
  <use href="#queen-half" transform="rotate(180 120 168)" />
</svg>