<svg xmlns="http://www.w3.org/2000/svg" viewBox="0 0 240 336" width="100%" max-width="300px">
  <defs>
    <g id="spade"><path d="M 0 -22 C 14 -8 22 -1 22 10 C 22 20 11 25 0 13 C -11 25 -22 20 -22 10 C -22 -1 -14 -8 0 -22 Z M 0 10 C 3 10 6 24 9 28 L -9 28 C -6 24 -3 10 0 10 Z" fill="#000000" /></g>
    <g id="small-spade"><use href="#spade" transform="scale(0.45)" /></g>
    <g id="index"><text x="26" y="42" font-family="Arial, sans-serif" font-size="32" font-weight="bold" fill="#000000" text-anchor="middle" letter-spacing="-2">10</text><use href="#small-spade" x="26" y="64" /></g>
  </defs>
  <rect x="1" y="1" width="238" height="334" rx="14" ry="14" fill="#ffffff" stroke="#000000" stroke-width="1.5" />
  <use href="#index" />
  <use href="#index" transform="rotate(180 120 168)" />
  <!-- Боковые ряды -->
  <use href="#spade" x="76" y="64" />    <use href="#spade" x="164" y="64" />
  <use href="#spade" x="76" y="132" />   <use href="#spade" x="164" y="132" />
  <use href="#spade" x="76" y="204" transform="rotate(180 76 204)" /> <use href="#spade" x="164" y="204" transform="rotate(180 164 204)" />
  <use href="#spade" x="76" y="272" transform="rotate(180 76 272)" /> <use href="#spade" x="164" y="272" transform="rotate(180 164 272)" />
  <!-- Центр (верхний и нижний) -->
  <use href="#spade" x="120" y="98" />
  <use href="#spade" x="120" y="238" transform="rotate(180 120 238)" />
</svg>