<svg xmlns="http://www.w3.org/2000/svg" viewBox="0 0 240 336" width="100%" max-width="300px">
  <defs>
    <g id="spade"><path d="M 0 -22 C 14 -8 22 -1 22 10 C 22 20 11 25 0 13 C -11 25 -22 20 -22 10 C -22 -1 -14 -8 0 -22 Z M 0 10 C 3 10 6 24 9 28 L -9 28 C -6 24 -3 10 0 10 Z" fill="#000000" /></g>
    <g id="small-spade"><use href="#spade" transform="scale(0.45)" /></g>
    <g id="index"><text x="26" y="42" font-family="Arial, sans-serif" font-size="32" font-weight="bold" fill="#000000" text-anchor="middle">A</text><use href="#small-spade" x="26" y="64" /></g>
  </defs>
  <rect x="1" y="1" width="238" height="334" rx="14" ry="14" fill="#ffffff" stroke="#000000" stroke-width="1.5" />
  <use href="#index" />
  <use href="#index" transform="rotate(180 120 168)" />
  
  <!-- Огромная масть для Туза по центру -->
  <g transform="translate(120, 168) scale(3.5)">
    <!-- Основная черная заливка -->
    <path d="M 0 -22 C 14 -8 22 -1 22 10 C 22 20 11 25 0 13 C -11 25 -22 20 -22 10 C -22 -1 -14 -8 0 -22 Z M 0 10 C 3 10 6 24 9 28 L -9 28 C -6 24 -3 10 0 10 Z" fill="#000000" />
    <!-- Элегантный декоративный вырез в центре -->
    <path d="M 0 -6 C 3 -2 6 1 6 4 C 6 7 3 9 0 6 C -3 9 -6 7 -6 4 C -6 1 -3 -2 0 -6 Z" fill="#ffffff" />
  </g>
</svg>