<svg xmlns="http://www.w3.org/2000/svg" viewBox="0 0 240 336" width="100%" max-width="300px">
  <defs>
    <g id="spade"><path d="M 0 -22 C 14 -8 22 -1 22 10 C 22 20 11 25 0 13 C -11 25 -22 20 -22 10 C -22 -1 -14 -8 0 -22 Z M 0 10 C 3 10 6 24 9 28 L -9 28 C -6 24 -3 10 0 10 Z" fill="#000000" /></g>
    <g id="small-spade"><use href="#spade" transform="scale(0.45)" /></g>
    <g id="index"><text x="26" y="42" font-family="Arial, sans-serif" font-size="32" font-weight="bold" fill="#000000" text-anchor="middle">J</text><use href="#small-spade" x="26" y="64" /></g>
    <!-- Половина рисунка Валета -->
    <g id="jack-half">
      <rect x="44" y="44" width="152" height="124" fill="#0055aa" />
      <path d="M44 44 L 196 168 L 44 168 Z" fill="#d40000" />
      <rect x="100" y="70" width="40" height="40" fill="#ffe0bd" stroke="#000" stroke-width="1.5" />
      <path d="M95 70 C 95 50, 145 50, 145 70 L 140 85 L 100 85 Z" fill="#333" />
      <path d="M90 70 L 150 70 L 120 44 Z" fill="#ffd700" stroke="#000" stroke-width="1.5" />
      <rect x="64" y="44" width="8" height="124" fill="#ddd" stroke="#000" stroke-width="1.5" />
      <path d="M72 80 L 88 60 L 72 44 Z" fill="#ddd" stroke="#000" stroke-width="1.5" />
      <use href="#small-spade" x="156" y="110" />
    </g>
  </defs>
  <rect x="1" y="1" width="238" height="334" rx="14" ry="14" fill="#ffffff" stroke="#000000" stroke-width="1.5" />
  <use href="#index" />
  <use href="#index" transform="rotate(180 120 168)" />
  <!-- Рамка и отраженные фигуры -->
  <rect x="44" y="44" width="152" height="248" fill="none" stroke="#000000" stroke-width="2" />
  <use href="#jack-half" />
  <use href="#jack-half" transform="rotate(180 120 168)" />
</svg>