<svg xmlns="http://www.w3.org/2000/svg" viewBox="0 0 240 336" width="100%" max-width="300px">
  <defs>
    <g id="spade"><path d="M 0 -22 C 14 -8 22 -1 22 10 C 22 20 11 25 0 13 C -11 25 -22 20 -22 10 C -22 -1 -14 -8 0 -22 Z M 0 10 C 3 10 6 24 9 28 L -9 28 C -6 24 -3 10 0 10 Z" fill="#000000" /></g>
    <g id="small-spade"><use href="#spade" transform="scale(0.45)" /></g>
    <g id="index"><text x="26" y="42" font-family="Arial, sans-serif" font-size="32" font-weight="bold" fill="#000000" text-anchor="middle">Q</text><use href="#small-spade" x="26" y="64" /></g>
    <!-- Половина рисунка Дамы -->
    <g id="queen-half">
      <rect x="44" y="44" width="152" height="124" fill="#0055aa" />
      <path d="M196 44 L 44 168 L 196 168 Z" fill="#ffd700" />
      <path d="M105 70 L 135 70 L 130 110 L 110 110 Z" fill="#ffe0bd" stroke="#000" stroke-width="1.5" />
      <path d="M100 70 L 105 110 L 110 110 L 105 70 M 140 70 L 135 110 L 130 110 L 135 70" fill="#000" />
      <path d="M100 70 L 105 44 L 120 60 L 135 44 L 140 70 Z" fill="#ffd700" stroke="#000" stroke-width="1.5" />
      <path d="M70 168 L 70 100" stroke="#000" stroke-width="4" />
      <circle cx="70" cy="100" r="12" fill="#000" />
      <circle cx="70" cy="100" r="4" fill="#ffd700" />
      <use href="#small-spade" x="156" y="125" />
    </g>
  </defs>
  <rect x="1" y="1" width="238" height="334" rx="14" ry="14" fill="#ffffff" stroke="#000000" stroke-width="1.5" />
  <use href="#index" />
  <use href="#index" transform="rotate(180 120 168)" />
  <!-- Рамка и отраженные фигуры -->
  <rect x="44" y="44" width="152" height="248" fill="none" stroke="#000000" stroke-width="2" />
  <use href="#queen-half" />
  <use href="#queen-half" transform="rotate(180 120 168)" />
</svg>