<svg xmlns="http://www.w3.org/2000/svg" viewBox="0 0 240 336" width="100%" max-width="300px">
  <defs>
    <g id="heart"><path d="M0 -10 C 15 -25, 28 -12, 28 2 C 28 15, 8 22, 0 30 C -8 22, -28 15, -28 2 C -28 -12, -15 -25, 0 -10 Z" fill="#d40000" /></g>
    <g id="small-heart"><use href="#heart" transform="scale(0.42)" y="-4" /></g>
    <g id="index"><text x="26" y="42" font-family="Arial, sans-serif" font-size="32" font-weight="bold" fill="#d40000" text-anchor="middle">9</text><use href="#small-heart" x="26" y="64" /></g>
  </defs>
  <rect x="1" y="1" width="238" height="334" rx="14" ry="14" fill="#ffffff" stroke="#000000" stroke-width="1.5" />
  <use href="#index" />
  <use href="#index" transform="rotate(180 120 168)" />
  <!-- Масти -->
  <use href="#heart" x="76" y="64" />
  <use href="#heart" x="164" y="64" />
  <use href="#heart" x="76" y="116" />
  <use href="#heart" x="164" y="116" />
  <use href="#heart" x="120" y="168" />
  <use href="#heart" x="76" y="220" transform="rotate(180 76 220)" />
  <use href="#heart" x="164" y="220" transform="rotate(180 164 220)" />
  <use href="#heart" x="76" y="272" transform="rotate(180 76 272)" />
  <use href="#heart" x="164" y="272" transform="rotate(180 164 272)" />
</svg>