<svg xmlns="http://www.w3.org/2000/svg" viewBox="0 0 240 336" width="100%" max-width="300px">
  <defs>
    <g id="heart"><path d="M0 -10 C 15 -25, 28 -12, 28 2 C 28 15, 8 22, 0 30 C -8 22, -28 15, -28 2 C -28 -12, -15 -25, 0 -10 Z" fill="#d40000" /></g>
    <g id="small-heart"><use href="#heart" transform="scale(0.42)" y="-4" /></g>
    <g id="index"><text x="26" y="42" font-family="Arial, sans-serif" font-size="32" font-weight="bold" fill="#d40000" text-anchor="middle">A</text><use href="#small-heart" x="26" y="64" /></g>
  </defs>
  <rect x="1" y="1" width="238" height="334" rx="14" ry="14" fill="#ffffff" stroke="#000000" stroke-width="1.5" />
  <use href="#index" />
  <use href="#index" transform="rotate(180 120 168)" />
  
  <!-- Огромная масть для Туза по центру -->
  <g transform="translate(120, 168) scale(3.5)">
    <path d="M0 -10 C 15 -25, 28 -12, 28 2 C 28 15, 8 22, 0 30 C -8 22, -28 15, -28 2 C -28 -12, -15 -25, 0 -10 Z" fill="#d40000" />
    <!-- Декоративный вырез в форме сердечка -->
    <path d="M 0 -2 C 4 -6 8 -2 5 2 L 0 7 L -5 2 C -8 -2 -4 -6 0 -2 Z" fill="#ffffff" />
  </g>
</svg>